<svg>
  <path d="M10.49,13.49c0,.78-.56,1.02-1.25,1.02h-1.81v-2.13h1.85c.75,0,1.22.31,1.22,1.1h0ZM10.18,10.18c0-.71-.55-.88-1.16-.88h-1.59v1.8h1.72c.61,0,1.04-.27,1.04-.92h0ZM15.5,11.11c-.74,0-1.23.46-1.27,1.19h2.5c-.07-.74-.45-1.19-1.23-1.19h0ZM21,4.93v14.14c0,1.06-.86,1.93-1.93,1.93H4.93c-1.06,0-1.93-.86-1.93-1.93V4.93c0-1.06.86-1.93,1.93-1.93h14.14c1.06,0,1.93.86,1.93,1.93ZM13.92,9.15h3.13v-.76h-3.13v.76ZM12.19,13.58c0-.97-.46-1.8-1.41-2.07.69-.33,1.05-.71,1.05-1.49,0-1.53-1.15-1.91-2.47-1.91h-3.64v7.71h3.74c1.4,0,2.72-.68,2.72-2.25ZM18.27,12.98c0-1.65-.97-3.03-2.72-3.03s-2.86,1.28-2.86,2.96,1.1,2.93,2.86,2.93c1.33,0,2.2-.6,2.62-1.88h-1.35c-.15.48-.75.73-1.21.73-.9,0-1.37-.53-1.37-1.42h4.03c0-.09.01-.19.01-.29h0Z" />
</svg>
