<svg>
  <path d="M12,0c6.63,0,12,5.37,12,12s-5.37,12-12,12S0,18.63,0,12c0-1.82.4-3.55,1.13-5.08.07.4.17.8.33,1.17.27.63.63,1.18,1.12,1.67.47.47,1.03.85,1.67,1.12.6.25,1.27.38,1.95.38h1.3v-2.55h-1.3c-.35,0-.68-.07-.97-.2-.32-.13-.6-.32-.83-.55s-.43-.52-.57-.83c-.12-.3-.2-.62-.2-.95v-.03c0-.33.07-.67.2-.95.13-.32.32-.6.55-.83.23-.23.52-.43.83-.55.3-.12.63-.2.97-.2.35,0,.67.07.97.2.32.13.6.32.83.55.23.23.43.52.55.83.12.3.2.63.2.97v7.67c0,.68.13,1.35.38,1.95.27.63.63,1.18,1.12,1.67.47.47,1.03.85,1.67,1.12.6.25,1.27.38,1.95.38s1.35-.13,1.95-.38c.62-.27,1.18-.63,1.67-1.12.47-.47.85-1.03,1.12-1.67.22-.52.35-1.08.38-1.68h.02v-.43c-.02-.63-.15-1.22-.38-1.78-.27-.62-.63-1.18-1.12-1.67-.47-.47-1.03-.85-1.67-1.12-.6-.25-1.27-.38-1.95-.38h-1.3v2.55h1.3c.35,0,.68.07.97.2.32.13.6.32.83.57.23.23.43.52.57.83.12.3.2.62.2.95v.03c0,.33-.07.67-.2.95-.13.32-.32.6-.55.83-.23.23-.52.43-.83.55-.3.12-.63.2-.97.2s-.67-.07-.97-.2c-.32-.13-.6-.32-.83-.55-.23-.23-.43-.52-.55-.83-.12-.3-.2-.63-.2-.97v-7.67c0-.68-.13-1.35-.38-1.95-.27-.63-.63-1.18-1.12-1.67-.47-.47-1.03-.85-1.67-1.12-.35-.15-.73-.25-1.12-.32,1.48-.72,3.17-1.1,4.95-1.1Z" />
</svg>
