<svg>
  <path d="M7.67,6.33c-.74,0-1.48.15-2.17.43-.69.28-1.31.7-1.84,1.23s-.94,1.15-1.23,1.84c-.28.69-.43,1.42-.43,2.17s.15,1.48.43,2.17c.28.69.7,1.31,1.23,1.84.53.53,1.15.94,1.84,1.23.69.28,1.42.43,2.17.43s1.48-.15,2.17-.43c.69-.28,1.31-.7,1.84-1.23.53-.53.94-1.15,1.23-1.84.28-.69.43-1.42.43-2.17s-.15-1.48-.43-2.17c-.28-.69-.7-1.31-1.23-1.84-.53-.53-1.15-.94-1.84-1.23-.69-.28-1.42-.43-2.17-.43ZM16.67,7c-.35,0-.7.13-1.02.38-.32.25-.62.62-.87,1.08-.25.46-.44,1.02-.58,1.62-.13.61-.2,1.26-.2,1.91s.07,1.31.2,1.91c.13.61.33,1.16.58,1.62.25.46.54.83.87,1.08.32.25.67.38,1.02.38s.7-.13,1.02-.38c.32-.25.62-.62.87-1.08.25-.46.44-1.02.58-1.62.13-.61.2-1.26.2-1.91s-.07-1.31-.2-1.91-.33-1.16-.58-1.62c-.25-.46-.54-.83-.87-1.08-.32-.25-.67-.38-1.02-.38ZM21,7.67c-.27,0-.52.46-.71,1.27-.19.81-.29,1.91-.29,3.06s.11,2.25.29,3.06c.19.81.44,1.27.71,1.27s.52-.46.71-1.27c.19-.81.29-1.91.29-3.06s-.11-2.25-.29-3.06c-.19-.81-.44-1.27-.71-1.27Z" />
</svg>
