<svg>
  <path fill="#ff97ff" d="M11.15,4.51l.08.18c.45,1.07.6,2.22.87,3.34.6,2.46,1.11,4.92,1.95,7.32.59,1.68,1.65,3.53,1.55,5.36-.03.49-.12.93-.25,1.3-.36.08-.73.15-1.11.19-.56.06-1.14.07-1.73.04-.45-.03-1.98-.08-2.32-.41-2.5-1.62-1.44-5.64-1.1-8.1.11-.8.24-1.59.4-2.38.17-.84.39-1.67.59-2.5.28-1.17.4-3.24,1.07-4.31Z" />
  <path fill="#ea2934" d="M9.65,10.61c-.06.24-.11.48-.16.71-.16.79-.29,1.58-.4,2.38-.34,2.46-1.4,6.49,1.1,8.1.34.34,1.87.39,2.32.41.58.04,1.16.02,1.73-.04.38-.04.74-.1,1.11-.19-.5,1.37-1.65,1.96-2.97,1.99-1,.04-2.24-.44-3.44-1.07-2-1.06-4.01-2.51-5.64-4.09-.35-.34-1.8-1.79-.67-2.1,1.72-.48,4.85,3.37,3.49.39-1.47-3.23-3.58-6.21-4.85-9.52-.27-.71-1.19-2.72-.48-3.44.48-.49,1.21.53,1.44.84,1.04,1.45,1.67,3.17,2.57,4.71.04.07,1.05,1.75,1.3,1.4.28-.38-.33-1.74-.44-2.12-.58-1.98-1.33-3.92-1.89-5.91-.15-.53-.78-2.38.14-2.61.54-.14.98.79,1.16,1.16.35.71.66,1.43.96,2.16.3.75.56,1.53.95,2.24.09.16.19.33.31.47.04.04.13.15.2.1.09-.07.07-.27.07-.36,0-.3-.06-.6-.13-.89-.3-1.23-.65-2.44-.9-3.67-.07-.34-.36-1.39.04-1.63.56-.34,1.1.93,1.23,1.26.44,1.11.69,2.29,1.03,3.44.16.55.33,1.28.75,1.7.43.43.43-.22.41-.53-.02-.41-.32-2.24.39-2.21.37.01.62.46.77.8-.66,1.07-.78,3.14-1.07,4.31l-.44,1.79Z" />
  <path fill="#3f9cf9" d="M13,11.78c-.37-1.37-.3-1.31-.9-3.75-.35-1.41-.66-2.57-.87-3.34l-.08-.18c.03-.06.07-.11.11-.16.88-1.18,1.29.95,1.3,1.49v.06c0,.5-.11,1.05-.04,1.55,0,.04.02.15.08.14.34-.09.68-.94.83-1.21.6-1.05,1.23-2.09,2.03-3.01.23-.27.9-1.17,1.36-.89.67.42-.14,2.45-.31,3.03-.04.15-.33,1,0,1.02.4.03.88-.87,1.05-1.13.76-1.14,1.42-2.32,2.34-3.35.24-.27.75-.92,1.2-.78.64.2.19,2.02.08,2.42-.51,1.78-1.57,3.35-2.23,5.07-.15.4-.65,1.43-.43,1.85.19.36.98-.75,1.05-.84.67-.85,1.21-1.88,2.06-2.57.3-.24.79-.59,1.18-.33.64.42-.26,2.12-.5,2.58-.86,1.65-1.95,3.16-2.93,4.74-.29.47-1,1.35-.87,1.96.1.51.9.13,1.16,0,.88-.44,1.71-.95,2.72-1.05.37-.04.95-.07,1.08.39.17.61-1.92,1.62-2.34,2-.78.7-1.16,1.66-1.83,2.42-.93,1.06-2.5,1.76-3.96,2.09.1-.29.22-.74.25-1.3.01-.19.05-.99-.41-2.43-.24-.75-.48-1.28-.56-1.46-.66-1.46-1.01-2.74-1.63-5.03Z" />
</svg>
 