<svg>
  <path fill='#76C1E4' d="M5.68,23.36c-.35,0-.68-.16-.9-.44-.26-.33-.31-.78-.14-1.17,1.04-2.31,1.26-4.2.64-5.62-.44-1.03-1.21-1.6-2.09-2.27-1.13-.85-2.41-1.81-2.96-3.78-.8-2.86.68-5.29.85-5.56C2.88,1.7,6.02,1.37,6.37,1.35c2.1-.17,4.15.64,5.62,2.16.94-.99,2.57-2.2,4.88-2.26,2.24-.05,4.39,1.01,5.75,2.85.95,1.28,1.41,2.82,1.38,4.59-.09,4.67-4.16,7.8-6.59,9.67-3.3,2.55-7.19,4.22-11.54,4.99-.07.01-.13.02-.2.02ZM6.91,3.61c-.12,0-.24,0-.36.01-.09,0-2.32.21-3.54,2.13-.05.07-1.12,1.78-.57,3.72.34,1.23,1.13,1.82,2.13,2.57,1,.75,2.13,1.6,2.82,3.19.67,1.55.7,3.38.1,5.44,3.18-.81,6.05-2.19,8.54-4.12,2.11-1.62,5.63-4.34,5.7-7.91.02-1.25-.29-2.33-.93-3.19-.71-.96-2.1-1.97-3.86-1.92-2.57.06-3.89,2.29-3.95,2.39-.2.35-.57.56-.97.57-.4,0-.77-.19-.99-.53-.93-1.47-2.48-2.35-4.11-2.35Z" />
</svg>