<svg>
  <path
    fill="##F8FAFC"
    d="M11.94,2C6.47,2,2,6.5,2,12c0,4.37,2.86,8.12,6.83,9.5.5.12.62-.25.62-.5v-1.75c-2.73.62-3.35-1.25-3.35-1.25-.5-1.12-1.12-1.5-1.12-1.5-.87-.62.12-.62.12-.62.99.12,1.49,1,1.49,1,.87,1.62,2.36,1.12,2.86.87.12-.62.37-1.12.62-1.37-2.24-.25-4.47-1.12-4.47-5,0-1.12.37-2,.99-2.62-.12-.25-.5-1.25.12-2.62,0,0,.87-.25,2.73,1,.75-.25,1.61-.37,2.48-.37s1.74.12,2.48.37c1.86-1.25,2.73-1,2.73-1,.5,1.37.25,2.37.12,2.62.62.75.99,1.62.99,2.62,0,3.87-2.36,4.62-4.6,4.87.37.5.75,1.12.75,2v2.75c0,.25.12.62.75.5,3.98-1.37,6.83-5.12,6.83-9.5-.12-5.5-4.6-10-10.06-10Z"
  />
</svg>
